<svg width="18" height="18" fill="none" xmlns="http://www.w3.org/2000/svg"><path d="M17.433 12.115a8.835 8.835 0 0 0 0-6.23A9.007 9.007 0 0 0 9 0h-.004A9.008 9.008 0 0 0 .573 5.867a8.847 8.847 0 0 0 .033 6.356 8.986 8.986 0 0 0 16.827-.108ZM6.67 11.23a10.612 10.612 0 0 1 0-4.458h4.66c.315 1.47.315 2.989 0 4.458H6.67Zm4.28 1.385A12.71 12.71 0 0 1 9 16.24a12.726 12.726 0 0 1-1.947-3.626h3.897ZM1.385 9c0-.756.114-1.507.337-2.23H5.26a12.028 12.028 0 0 0 0 4.46H1.722A7.58 7.58 0 0 1 1.385 9Zm5.668-3.614a12.725 12.725 0 0 1 1.95-3.626 12.71 12.71 0 0 1 1.947 3.626H7.053Zm5.692 1.385h3.539a7.582 7.582 0 0 1 0 4.458h-3.542a11.992 11.992 0 0 0 0-4.458h.003Zm2.96-1.385h-3.29a13.716 13.716 0 0 0-1.848-3.837A7.64 7.64 0 0 1 15.7 5.386h.003ZM7.432 1.55a13.716 13.716 0 0 0-1.85 3.837H2.298A7.64 7.64 0 0 1 7.433 1.55ZM2.298 12.614h3.285a13.716 13.716 0 0 0 1.85 3.837 7.64 7.64 0 0 1-5.135-3.837Zm8.269 3.837a13.717 13.717 0 0 0 1.849-3.837H15.7a7.64 7.64 0 0 1-5.134 3.837Z" fill="#3cc"/></svg>