<svg width="38" height="35" fill="none" xmlns="http://www.w3.org/2000/svg"><path d="M36.813 0h-4.75a1.188 1.188 0 0 0-1.188 1.188v1.187h-8.313V1.187A1.187 1.187 0 0 0 21.375 0h-4.75a1.188 1.188 0 0 0-1.188 1.188v1.187H7.126V1.187A1.187 1.187 0 0 0 5.937 0h-4.75A1.187 1.187 0 0 0 0 1.188v4.75a1.188 1.188 0 0 0 1.188 1.187h4.75a1.188 1.188 0 0 0 1.187-1.188V4.75h8.313v1.188a1.187 1.187 0 0 0 1.187 1.187h4.75a1.188 1.188 0 0 0 1.188-1.188v-.83c3.348.83 9.048 3.811 9.5 13.893h-1.188a1.188 1.188 0 0 0-1.188 1.188v4.75a1.188 1.188 0 0 0 1.188 1.187h4.75a1.188 1.188 0 0 0 1.188-1.188v-4.75A1.188 1.188 0 0 0 35.624 19h-1.188c-.296-7.932-3.562-12.089-6.934-14.25h3.372v1.188a1.187 1.187 0 0 0 1.188 1.187h4.75A1.188 1.188 0 0 0 38 5.937v-4.75A1.187 1.187 0 0 0 36.812 0ZM4.75 4.75H2.375V2.375H4.75V4.75Zm15.438 0h-2.375V2.375h2.375V4.75Zm11.875 16.625h2.374v2.375h-2.374v-2.375ZM35.624 4.75H33.25V2.375h2.375V4.75Z" fill="#3cc"/><path d="M11.744 8.966a1.188 1.188 0 0 0-2.125 0l-7.125 14.25a1.187 1.187 0 0 0 .225 1.365l1.615 1.615a1.187 1.187 0 0 0-.772 1.116v2.375a1.187 1.187 0 0 0 1.188 1.188h1.187v3.563h2.375v-3.563h4.75v3.563h2.376v-3.563h1.187a1.187 1.187 0 0 0 1.188-1.188v-2.375a1.188 1.188 0 0 0-.784-1.104l1.615-1.615a1.188 1.188 0 0 0 .225-1.366L11.744 8.966Zm2.02 17.159H7.611l-2.613-2.613L9.5 14.535v6.84h2.375v-6.84l4.489 8.99-2.6 2.6Z" fill="#3cc"/></svg>