<svg width="32" height="32" fill="none" xmlns="http://www.w3.org/2000/svg"><path d="M16 2.667c3.623 0 4.075.013 5.496.08 1.42.066 2.387.289 3.237.62.88.338 1.622.797 2.363 1.537a6.543 6.543 0 0 1 1.537 2.363c.33.849.554 1.817.62 3.237.063 1.421.08 1.873.08 5.496s-.013 4.075-.08 5.496c-.066 1.42-.29 2.387-.62 3.237a6.51 6.51 0 0 1-1.537 2.363 6.554 6.554 0 0 1-2.363 1.537c-.849.33-1.817.554-3.237.62-1.421.063-1.873.08-5.496.08s-4.075-.013-5.496-.08c-1.42-.066-2.387-.29-3.237-.62a6.52 6.52 0 0 1-2.363-1.537 6.54 6.54 0 0 1-1.537-2.363c-.33-.849-.554-1.817-.62-3.237-.063-1.421-.08-1.873-.08-5.496s.013-4.075.08-5.496c.066-1.421.29-2.387.62-3.237a6.507 6.507 0 0 1 1.537-2.363 6.53 6.53 0 0 1 2.363-1.537c.85-.331 1.816-.554 3.237-.62 1.421-.063 1.873-.08 5.496-.08Zm0 6.666a6.667 6.667 0 1 0 0 13.334 6.667 6.667 0 0 0 0-13.334ZM24.667 9a1.666 1.666 0 1 0-3.333 0 1.666 1.666 0 0 0 3.333 0ZM16 12a4 4 0 1 1 0 8 4 4 0 0 1 0-8Z" fill="#3cc"/></svg>