<svg xmlns="http://www.w3.org/2000/svg" width="500" height="487" fill="none"><path fill-rule="evenodd" clip-rule="evenodd" d="M148.388 407.959c81.953 0 148.389-66.436 148.389-148.389 0-81.952-66.436-148.388-148.389-148.388C66.436 111.182 0 177.618 0 259.57c0 32.449 10.415 62.464 28.084 86.887L8.65 418.99l83.038-22.25c17.469 7.229 36.619 11.219 56.701 11.219Z" fill="#0a142f"/><path fill-rule="evenodd" clip-rule="evenodd" d="M192.645 193.62c53.197 0 96.322-43.125 96.322-96.322 0-53.198-43.125-96.322-96.322-96.322-53.198 0-96.323 43.124-96.323 96.322 0 21.063 6.761 40.547 18.231 56.4l-12.616 47.083 53.901-14.443c11.34 4.693 23.771 7.282 36.807 7.282Z" fill="#333"/><path fill-rule="evenodd" clip-rule="evenodd" d="M324.194 473.207c97.095 0 175.806-78.711 175.806-175.806 0-97.095-78.711-175.806-175.806-175.806-97.095 0-175.806 78.711-175.806 175.806 0 38.444 12.34 74.006 33.274 102.941l-23.026 85.934 98.38-26.361c20.697 8.565 43.385 13.292 67.178 13.292Z" fill="#3cc"/></svg>