<svg width="32" height="32" fill="none" xmlns="http://www.w3.org/2000/svg"><path d="M29.55 7.541c-1.018.45-2.098.746-3.203.878A5.595 5.595 0 0 0 28.8 5.333a11.144 11.144 0 0 1-3.541 1.354 5.576 5.576 0 0 0-9.502 5.085A15.832 15.832 0 0 1 4.264 5.945 5.557 5.557 0 0 0 3.51 8.75c0 1.934.984 3.642 2.48 4.642a5.559 5.559 0 0 1-2.525-.698v.07a5.58 5.58 0 0 0 4.473 5.468 5.614 5.614 0 0 1-2.52.096 5.58 5.58 0 0 0 5.21 3.873 11.191 11.191 0 0 1-8.255 2.31 15.773 15.773 0 0 0 8.547 2.506c10.257 0 15.866-8.497 15.866-15.867 0-.24-.006-.482-.017-.72a11.328 11.328 0 0 0 2.783-2.886l-.002-.002Z" fill="#3cc"/></svg>