<svg width="36" height="36" fill="none" xmlns="http://www.w3.org/2000/svg"><path d="M34.866 24.23a17.67 17.67 0 0 0 0-12.46 1.339 1.339 0 0 0-.088-.238A18.013 18.013 0 0 0 18 0h-.009A18.015 18.015 0 0 0 1.146 11.735a17.694 17.694 0 0 0 0 12.53c.018.062.04.122.067.18a17.971 17.971 0 0 0 33.565.02c.037-.075.066-.154.088-.234ZM13.34 22.459a21.225 21.225 0 0 1 0-8.917h9.318a21.225 21.225 0 0 1 0 8.917h-9.318Zm8.56 2.77A25.42 25.42 0 0 1 18 32.48a25.45 25.45 0 0 1-3.895-7.252H21.9ZM2.768 18a15.16 15.16 0 0 1 .674-4.459h7.077a24.056 24.056 0 0 0 0 8.917H3.443A15.16 15.16 0 0 1 2.77 18Zm11.336-7.228a25.452 25.452 0 0 1 3.902-7.252 25.419 25.419 0 0 1 3.893 7.252h-7.795Zm11.386 2.77h7.076a15.165 15.165 0 0 1 0 8.916h-7.083a23.98 23.98 0 0 0 0-8.917h.006Zm5.917-2.77h-6.577a27.431 27.431 0 0 0-3.698-7.675 15.28 15.28 0 0 1 10.268 7.675h.007ZM14.866 3.097a27.43 27.43 0 0 0-3.7 7.675h-6.57a15.28 15.28 0 0 1 10.27-7.675Zm-10.27 22.13h6.57a27.431 27.431 0 0 0 3.7 7.675 15.28 15.28 0 0 1-10.27-7.675Zm16.537 7.675a27.43 27.43 0 0 0 3.698-7.675h6.57a15.28 15.28 0 0 1-10.268 7.675Z" fill="#3cc"/></svg>